<svg width="243" height="113" viewBox="0 0 243 113" fill="none" xmlns="http://www.w3.org/2000/svg">
<path d="M125.72 12.1004C125.977 12.4037 126.105 12.7187 126.105 13.0454C126.105 13.1854 126.093 13.3371 126.07 13.5004C126.07 13.6404 126.058 13.7687 126.035 13.8854C125.965 14.1421 125.813 14.3871 125.58 14.6204C125.393 14.7604 125.137 14.8654 124.81 14.9354C124.647 14.9821 124.483 15.0171 124.32 15.0404C124.157 15.0637 123.982 15.0987 123.795 15.1454C123.632 15.1687 123.468 15.1804 123.305 15.1804C123.142 15.1804 122.967 15.1804 122.78 15.1804H120.995C120.575 15.2037 120.155 15.2154 119.735 15.2154C119.338 15.2154 118.942 15.2154 118.545 15.2154C118.568 15.9387 118.58 16.7204 118.58 17.5604C118.58 18.3771 118.568 19.3337 118.545 20.4304C118.545 21.5271 118.533 22.7987 118.51 24.2454C118.51 25.6921 118.51 27.3721 118.51 29.2854V31.9454C118.51 32.1787 118.522 32.3537 118.545 32.4704C118.545 32.5637 118.545 32.6571 118.545 32.7504C118.545 32.8204 118.533 32.9137 118.51 33.0304C118.463 33.2404 118.428 33.4854 118.405 33.7654C118.405 33.8821 118.393 33.9987 118.37 34.1154C118.347 34.2087 118.312 34.3137 118.265 34.4304C118.172 34.5237 118.125 34.5937 118.125 34.6404L118.02 34.8504C117.903 35.0837 117.682 35.3054 117.355 35.5154C116.842 35.7721 116.27 35.8304 115.64 35.6904C115.243 35.6437 114.94 35.5387 114.73 35.3754C114.52 35.1654 114.368 34.9554 114.275 34.7454C114.135 34.4887 114.053 34.2437 114.03 34.0104C113.96 33.8004 113.925 33.5787 113.925 33.3454V15.3554C113.785 15.3554 113.493 15.3554 113.05 15.3554C112.607 15.3554 112.128 15.3554 111.615 15.3554C111.125 15.3321 110.658 15.3087 110.215 15.2854C109.772 15.2621 109.468 15.2387 109.305 15.2154C109.165 15.1921 108.943 15.1571 108.64 15.1104C108.36 15.0637 108.127 15.0171 107.94 14.9704C107.45 14.8304 107.065 14.6087 106.785 14.3054C106.528 14.0021 106.4 13.6637 106.4 13.2904C106.4 13.1504 106.4 13.0104 106.4 12.8704C106.4 12.7304 106.423 12.6021 106.47 12.4854C106.54 12.2054 106.727 11.9721 107.03 11.7854C107.123 11.7154 107.263 11.6337 107.45 11.5404C107.66 11.4237 107.858 11.3421 108.045 11.2954C108.325 11.2021 108.675 11.1321 109.095 11.0854C109.282 11.0621 109.468 11.0504 109.655 11.0504C109.842 11.0504 110.04 11.0504 110.25 11.0504C111.067 11.0504 111.837 11.0504 112.56 11.0504C113.307 11.0504 114.088 11.0387 114.905 11.0154C116.258 10.9921 117.6 10.9921 118.93 11.0154C120.283 11.0154 121.625 11.0387 122.955 11.0854C123.258 11.1087 123.55 11.1437 123.83 11.1904C124.11 11.2371 124.39 11.3187 124.67 11.4354C124.88 11.5054 125.078 11.5987 125.265 11.7154C125.452 11.8087 125.603 11.9371 125.72 12.1004ZM127.08 23.4054C127.08 23.1254 127.08 22.8104 127.08 22.4604C127.08 22.0871 127.091 21.7137 127.115 21.3404C127.138 20.9437 127.173 20.5704 127.22 20.2204C127.29 19.8471 127.383 19.5204 127.5 19.2404C127.686 18.8204 127.978 18.5404 128.375 18.4004C128.771 18.2371 129.203 18.1671 129.67 18.1904C130.16 18.1904 130.545 18.2721 130.825 18.4354C131.105 18.5987 131.315 18.8204 131.455 19.1004C131.595 19.3571 131.676 19.6604 131.7 20.0104C131.746 20.3371 131.77 20.6871 131.77 21.0604C131.98 20.6871 132.26 20.3837 132.61 20.1504C132.983 19.9171 133.356 19.7304 133.73 19.5904C134.103 19.4504 134.441 19.3571 134.745 19.3104C135.048 19.2404 135.223 19.2054 135.27 19.2054C135.853 19.1587 136.378 19.1471 136.845 19.1704C137.335 19.1937 137.871 19.2987 138.455 19.4854C138.828 19.6254 139.213 19.8237 139.61 20.0804C140.006 20.3137 140.356 20.5937 140.66 20.9204C140.963 21.2471 141.161 21.6087 141.255 22.0054C141.371 22.3787 141.325 22.7754 141.115 23.1954C140.788 23.7787 140.426 24.0704 140.03 24.0704C139.633 24.0471 139.201 23.9771 138.735 23.8604C138.478 23.8137 138.175 23.7087 137.825 23.5454C137.475 23.3821 137.171 23.2771 136.915 23.2304C136.121 23.1137 135.421 23.1721 134.815 23.4054C134.208 23.6387 133.683 23.9187 133.24 24.2454C132.726 24.6421 132.283 25.0971 131.91 25.6104V30.6504C131.91 31.2804 131.898 31.9337 131.875 32.6104C131.875 33.2871 131.781 33.9054 131.595 34.4654C131.431 35.0021 131.14 35.4454 130.72 35.7954C130.323 36.1221 129.74 36.2621 128.97 36.2154C128.55 36.1921 128.176 35.9937 127.85 35.6204C127.523 35.2237 127.325 34.8387 127.255 34.4654C127.208 34.1154 127.173 33.6954 127.15 33.2054C127.126 32.7154 127.103 32.2021 127.08 31.6654C127.08 31.1287 127.08 30.5921 127.08 30.0554C127.08 29.4954 127.08 28.9821 127.08 28.5154V23.4054ZM146.144 21.0604C146.844 20.7104 147.579 20.4654 148.349 20.3254C149.119 20.1621 149.878 20.1271 150.624 20.2204C151.394 20.2904 152.129 20.4887 152.829 20.8154C153.529 21.1187 154.183 21.5621 154.789 22.1454C155.396 22.7521 155.863 23.4171 156.189 24.1404C156.516 24.8637 156.749 25.6687 156.889 26.5554C156.983 27.1621 157.134 27.7221 157.344 28.2354C157.554 28.7487 157.776 29.2621 158.009 29.7754C158.266 30.2887 158.499 30.8021 158.709 31.3154C158.943 31.8287 159.129 32.3654 159.269 32.9254C159.386 33.4621 159.339 33.9871 159.129 34.5004C158.943 34.9904 158.546 35.2937 157.939 35.4104C157.589 35.4804 157.251 35.4571 156.924 35.3404C156.621 35.2004 156.341 35.0137 156.084 34.7804C155.828 34.5237 155.594 34.2554 155.384 33.9754C155.198 33.6721 155.023 33.3921 154.859 33.1354C154.323 33.8354 153.739 34.3837 153.109 34.7804C152.479 35.1537 151.721 35.3987 150.834 35.5154C150.088 35.6087 149.376 35.6321 148.699 35.5854C148.023 35.5387 147.299 35.4104 146.529 35.2004C145.526 34.9437 144.698 34.5004 144.044 33.8704C143.414 33.2171 142.924 32.4704 142.574 31.6304C142.248 30.7671 142.073 29.8454 142.049 28.8654C142.026 27.8854 142.143 26.9171 142.399 25.9604C142.726 24.7004 143.216 23.6737 143.869 22.8804C144.523 22.0871 145.281 21.4804 146.144 21.0604ZM147.019 25.1554C146.693 25.4821 146.436 25.8671 146.249 26.3104C146.063 26.7537 145.946 27.2204 145.899 27.7104C145.876 28.2004 145.923 28.6904 146.039 29.1804C146.156 29.6704 146.343 30.1021 146.599 30.4754C146.833 30.8021 147.229 31.0821 147.789 31.3154C148.349 31.5254 148.933 31.6537 149.539 31.7004C150.239 31.7471 150.846 31.5604 151.359 31.1404C151.896 30.7204 152.293 30.1954 152.549 29.5654C152.829 28.9121 152.958 28.2237 152.934 27.5004C152.911 26.7537 152.713 26.0771 152.339 25.4704C152.059 25.0271 151.686 24.7004 151.219 24.4904C150.776 24.2804 150.298 24.1754 149.784 24.1754C149.271 24.1521 148.758 24.2337 148.244 24.4204C147.754 24.5837 147.346 24.8287 147.019 25.1554ZM175.671 20.4654C175.765 20.7454 175.788 21.0604 175.741 21.4104C175.695 21.7604 175.613 22.1221 175.496 22.4954C175.38 22.8454 175.24 23.1954 175.076 23.5454C174.936 23.8721 174.808 24.1637 174.691 24.4204C174.085 25.6571 173.513 26.8704 172.976 28.0604C172.44 29.2504 171.81 30.5454 171.086 31.9454C170.946 32.2254 170.783 32.5637 170.596 32.9604C170.433 33.3337 170.246 33.7071 170.036 34.0804C169.826 34.4304 169.593 34.7571 169.336 35.0604C169.103 35.3637 168.846 35.5854 168.566 35.7254C168.333 35.8654 168.1 35.9237 167.866 35.9004C167.68 35.9471 167.47 35.8887 167.236 35.7254C166.956 35.5854 166.688 35.3637 166.431 35.0604C166.198 34.7571 165.976 34.4304 165.766 34.0804C165.556 33.7071 165.358 33.3337 165.171 32.9604C165.008 32.5637 164.856 32.2254 164.716 31.9454C164.436 31.4087 164.168 30.9071 163.911 30.4404C163.678 29.9737 163.421 29.4721 163.141 28.9354C162.885 28.3754 162.593 27.7454 162.266 27.0454C161.94 26.3221 161.555 25.4471 161.111 24.4204C160.995 24.1404 160.866 23.8487 160.726 23.5454C160.586 23.2421 160.458 22.9154 160.341 22.5654C160.248 22.2154 160.178 21.8654 160.131 21.5154C160.108 21.1421 160.131 20.7687 160.201 20.3954C160.271 20.0454 160.446 19.7654 160.726 19.5554C161.006 19.3454 161.321 19.2054 161.671 19.1354C162.021 19.0654 162.371 19.0771 162.721 19.1704C163.071 19.2404 163.351 19.3921 163.561 19.6254C163.771 19.8354 163.97 20.1154 164.156 20.4654C164.343 20.8154 164.518 21.1887 164.681 21.5854C164.868 21.9587 165.031 22.3437 165.171 22.7404C165.335 23.1137 165.486 23.4404 165.626 23.7204C165.953 24.3971 166.315 25.1321 166.711 25.9254C167.131 26.7187 167.505 27.4537 167.831 28.1304C168.065 27.5937 168.275 27.1504 168.461 26.8004C168.648 26.4271 168.823 26.0654 168.986 25.7154C169.173 25.3654 169.36 24.9804 169.546 24.5604C169.756 24.1404 170.013 23.6037 170.316 22.9504C170.596 22.3437 170.876 21.7487 171.156 21.1654C171.46 20.5821 171.821 20.0687 172.241 19.6254C172.451 19.3921 172.72 19.2404 173.046 19.1704C173.373 19.0771 173.711 19.0654 174.061 19.1354C174.411 19.2054 174.726 19.3571 175.006 19.5904C175.31 19.8004 175.531 20.0921 175.671 20.4654ZM189.638 31.0004C189.918 30.9304 190.198 30.8837 190.478 30.8604C190.781 30.8371 191.05 30.8721 191.283 30.9654C191.54 31.0587 191.75 31.2221 191.913 31.4554C192.076 31.6654 192.158 31.9687 192.158 32.3654C192.158 32.6454 192.088 32.9137 191.948 33.1704C191.808 33.4271 191.633 33.6604 191.423 33.8704C191.213 34.0804 190.98 34.2671 190.723 34.4304C190.466 34.5704 190.221 34.6871 189.988 34.7804C189.311 35.0837 188.53 35.3171 187.643 35.4804C186.78 35.6437 185.881 35.7021 184.948 35.6554C183.688 35.6087 182.475 35.3637 181.308 34.9204C180.165 34.4537 179.266 33.6954 178.613 32.6454C178.006 31.6187 177.645 30.4754 177.528 29.2154C177.411 27.9554 177.47 26.7654 177.703 25.6454C177.96 24.2921 178.391 23.1954 178.998 22.3554C179.628 21.4921 180.375 20.8037 181.238 20.2904C182.288 19.6837 183.466 19.3687 184.773 19.3454C186.08 19.3221 187.328 19.5787 188.518 20.1154C189.311 20.4654 190.023 20.9437 190.653 21.5504C191.283 22.1337 191.761 22.8454 192.088 23.6854C192.181 23.8954 192.251 24.1521 192.298 24.4554C192.368 24.7587 192.415 25.0854 192.438 25.4354C192.461 25.7621 192.461 26.0887 192.438 26.4154C192.415 26.7421 192.356 27.0337 192.263 27.2904C192.123 27.7104 191.948 28.0371 191.738 28.2704C191.528 28.5037 191.26 28.6787 190.933 28.7954C190.606 28.9121 190.21 28.9937 189.743 29.0404C189.3 29.0637 188.763 29.0871 188.133 29.1104C187.573 29.1337 187.048 29.1454 186.558 29.1454C186.068 29.1454 185.566 29.1454 185.053 29.1454C184.54 29.1221 184.003 29.1104 183.443 29.1104C182.906 29.0871 182.3 29.0637 181.623 29.0404C181.553 29.5071 181.611 29.9154 181.798 30.2654C182.008 30.5921 182.288 30.8721 182.638 31.1054C182.988 31.3154 183.385 31.4787 183.828 31.5954C184.271 31.7121 184.703 31.7821 185.123 31.8054C185.916 31.8521 186.675 31.7937 187.398 31.6304C188.121 31.4437 188.868 31.2337 189.638 31.0004ZM188.133 24.2104C187.69 23.6971 187.223 23.3237 186.733 23.0904C186.36 22.9271 185.963 22.8571 185.543 22.8804C185.146 22.8804 184.761 22.9387 184.388 23.0554C183.711 23.2187 183.14 23.5687 182.673 24.1054C182.626 24.1521 182.545 24.2687 182.428 24.4554C182.311 24.6187 182.195 24.7937 182.078 24.9804C181.985 25.1671 181.915 25.3421 181.868 25.5054C181.821 25.6687 181.845 25.7504 181.938 25.7504H188.798C188.775 25.4237 188.716 25.1554 188.623 24.9454C188.53 24.7121 188.366 24.4671 188.133 24.2104ZM200.674 32.9954C200.651 33.1121 200.627 33.2287 200.604 33.3454C200.604 33.4387 200.604 33.5437 200.604 33.6604L200.394 34.3954C200.347 34.4887 200.312 34.5471 200.289 34.5704L200.184 34.7804C200.067 35.0371 199.857 35.2471 199.554 35.4104C198.994 35.6904 198.399 35.7604 197.769 35.6204C197.372 35.5737 197.057 35.4571 196.824 35.2704C196.591 35.1071 196.427 34.9087 196.334 34.6754C196.241 34.4421 196.171 34.2087 196.124 33.9754C196.054 33.7421 196.019 33.5321 196.019 33.3454V13.7454C196.019 13.5821 196.019 13.4421 196.019 13.3254C196.042 13.1854 196.066 13.0571 196.089 12.9404C196.112 12.7771 196.136 12.6371 196.159 12.5204C196.206 12.4037 196.252 12.2754 196.299 12.1354C196.369 11.9021 196.497 11.7154 196.684 11.5754C196.964 11.3654 197.232 11.2487 197.489 11.2254C197.652 11.1787 197.804 11.1554 197.944 11.1554C198.084 11.1321 198.247 11.1204 198.434 11.1204C198.761 11.1204 199.134 11.2137 199.554 11.4004C199.881 11.5871 200.114 11.8437 200.254 12.1704C200.487 12.6371 200.604 13.0687 200.604 13.4654C200.627 13.6987 200.639 14.0487 200.639 14.5154C200.662 14.9821 200.674 15.3321 200.674 15.5654V15.7054C200.721 16.4521 200.744 17.1754 200.744 17.8754C200.744 18.5521 200.732 19.2987 200.709 20.1154C200.709 20.9087 200.697 21.6787 200.674 22.4254C200.674 23.1487 200.674 23.8721 200.674 24.5954V31.9454C200.674 32.0387 200.674 32.1321 200.674 32.2254C200.697 32.2954 200.709 32.3771 200.709 32.4704C200.709 32.7037 200.697 32.8787 200.674 32.9954Z" fill="#263238"/>
<path d="M43.0755 41.3674C32.6712 43.5913 18.445 45.9853 10.7674 55.2978C5.62416 61.5363 3.5761 67.7426 2.18705 76.4987C0.609432 86.4435 9.34453 93.7079 15.8485 98.643C23.5065 104.454 32.3358 108.399 41.4457 109.521C55.3175 111.23 71.0385 111.714 84.7788 108.744C92.4649 107.082 98.906 102.514 105.678 98.31C118.58 90.3014 131.416 81.362 145.033 75.0557C158.112 68.9984 172.334 62.7163 186.161 59.7378C198.614 57.0554 211.019 59.6278 222.831 64.5663C228.441 66.9116 235.326 69.9299 239.848 74.6672C240.964 75.8361 240.663 77.0582 240.663 74.3342" stroke="#263238" stroke-width="4" stroke-linecap="round" stroke-linejoin="round" stroke-dasharray="12 12"/>
<path d="M52.7905 29.5467L57.4931 36.669L56.9817 45.1884L62.1956 43.7913L65.0583 38.8331L74.1826 36.3882L70.5529 54.1256L78.3738 52.03L83.307 33.9434L93.7348 31.1492C95.8944 30.5706 97.1761 28.3507 96.5974 26.191C96.0187 24.0313 93.7989 22.7497 91.6392 23.3284L81.2114 26.1225L67.8958 12.9256L60.075 15.0212L72.087 28.5674L62.9627 31.0122L58.0045 28.1496L52.7905 29.5467Z" stroke="#263238" stroke-width="3" stroke-linecap="round" stroke-linejoin="round"/>
</svg>
