<svg width="236" height="145" viewBox="0 0 236 145" fill="none" xmlns="http://www.w3.org/2000/svg">
<path d="M50.4714 47.641C39.8575 48.375 25.4358 48.7382 16.5213 56.8746C10.5495 62.3252 7.64648 68.1806 5.03617 76.6532C2.0715 86.2759 9.69453 94.6999 15.4373 100.503C22.199 107.336 30.3836 112.487 39.2441 114.883C52.7362 118.531 68.2317 121.229 82.2535 120.226C90.0972 119.666 97.1182 116.052 104.416 112.845C118.319 106.736 132.287 99.697 146.657 95.3746C160.46 91.2229 175.426 87.0097 189.535 86.0115C202.241 85.1125 214.16 89.4091 225.157 95.9644C230.38 99.0776 236.77 103.037 240.579 108.365C241.519 109.679 241.049 110.847 241.433 108.15" stroke="white" stroke-opacity="0.5" stroke-width="4" stroke-linecap="round" stroke-linejoin="round" stroke-dasharray="12 12"/>
<path d="M61.3699 37.2817L65.0207 44.9961L63.3127 53.3582L68.6715 52.7106L72.205 48.2057L81.5829 47.0724L75.4875 64.1204L83.5258 63.1489L90.9609 45.9391L101.679 44.6439C103.898 44.3756 105.48 42.3587 105.212 40.139C104.944 37.9193 102.927 36.3373 100.707 36.6056L89.9895 37.9008L78.6687 22.9576L70.6304 23.929L80.6115 39.0341L71.2335 40.1675L66.7287 36.634L61.3699 37.2817Z" stroke="white" stroke-opacity="0.5" stroke-width="3" stroke-linecap="round" stroke-linejoin="round"/>
</svg>
