<svg width="243" height="113" viewBox="0 0 243 113" fill="none" xmlns="http://www.w3.org/2000/svg">
<path d="M125.72 11.305C125.977 11.6083 126.105 11.9233 126.105 12.25C126.105 12.39 126.093 12.5417 126.07 12.705C126.07 12.845 126.058 12.9733 126.035 13.09C125.965 13.3467 125.813 13.5917 125.58 13.825C125.393 13.965 125.137 14.07 124.81 14.14C124.647 14.1867 124.483 14.2217 124.32 14.245C124.157 14.2683 123.982 14.3033 123.795 14.35C123.632 14.3733 123.468 14.385 123.305 14.385C123.142 14.385 122.967 14.385 122.78 14.385H120.995C120.575 14.4083 120.155 14.42 119.735 14.42C119.338 14.42 118.942 14.42 118.545 14.42C118.568 15.1433 118.58 15.925 118.58 16.765C118.58 17.5817 118.568 18.5383 118.545 19.635C118.545 20.7317 118.533 22.0033 118.51 23.45C118.51 24.8967 118.51 26.5767 118.51 28.49V31.15C118.51 31.3833 118.522 31.5583 118.545 31.675C118.545 31.7683 118.545 31.8617 118.545 31.955C118.545 32.025 118.533 32.1183 118.51 32.235C118.463 32.445 118.428 32.69 118.405 32.97C118.405 33.0867 118.393 33.2033 118.37 33.32C118.347 33.4133 118.312 33.5183 118.265 33.635C118.172 33.7283 118.125 33.7983 118.125 33.845L118.02 34.055C117.903 34.2883 117.682 34.51 117.355 34.72C116.842 34.9767 116.27 35.035 115.64 34.895C115.243 34.8483 114.94 34.7433 114.73 34.58C114.52 34.37 114.368 34.16 114.275 33.95C114.135 33.6933 114.053 33.4483 114.03 33.215C113.96 33.005 113.925 32.7833 113.925 32.55V14.56C113.785 14.56 113.493 14.56 113.05 14.56C112.607 14.56 112.128 14.56 111.615 14.56C111.125 14.5367 110.658 14.5133 110.215 14.49C109.772 14.4667 109.468 14.4433 109.305 14.42C109.165 14.3967 108.943 14.3617 108.64 14.315C108.36 14.2683 108.127 14.2217 107.94 14.175C107.45 14.035 107.065 13.8133 106.785 13.51C106.528 13.2067 106.4 12.8683 106.4 12.495C106.4 12.355 106.4 12.215 106.4 12.075C106.4 11.935 106.423 11.8067 106.47 11.69C106.54 11.41 106.727 11.1767 107.03 10.99C107.123 10.92 107.263 10.8383 107.45 10.745C107.66 10.6283 107.858 10.5467 108.045 10.5C108.325 10.4067 108.675 10.3367 109.095 10.29C109.282 10.2667 109.468 10.255 109.655 10.255C109.842 10.255 110.04 10.255 110.25 10.255C111.067 10.255 111.837 10.255 112.56 10.255C113.307 10.255 114.088 10.2433 114.905 10.22C116.258 10.1967 117.6 10.1967 118.93 10.22C120.283 10.22 121.625 10.2433 122.955 10.29C123.258 10.3133 123.55 10.3483 123.83 10.395C124.11 10.4417 124.39 10.5233 124.67 10.64C124.88 10.71 125.078 10.8033 125.265 10.92C125.452 11.0133 125.603 11.1417 125.72 11.305ZM127.08 22.61C127.08 22.33 127.08 22.015 127.08 21.665C127.08 21.2917 127.091 20.9183 127.115 20.545C127.138 20.1483 127.173 19.775 127.22 19.425C127.29 19.0517 127.383 18.725 127.5 18.445C127.686 18.025 127.978 17.745 128.375 17.605C128.771 17.4417 129.203 17.3717 129.67 17.395C130.16 17.395 130.545 17.4767 130.825 17.64C131.105 17.8033 131.315 18.025 131.455 18.305C131.595 18.5617 131.676 18.865 131.7 19.215C131.746 19.5417 131.77 19.8917 131.77 20.265C131.98 19.8917 132.26 19.5883 132.61 19.355C132.983 19.1217 133.356 18.935 133.73 18.795C134.103 18.655 134.441 18.5617 134.745 18.515C135.048 18.445 135.223 18.41 135.27 18.41C135.853 18.3633 136.378 18.3517 136.845 18.375C137.335 18.3983 137.871 18.5033 138.455 18.69C138.828 18.83 139.213 19.0283 139.61 19.285C140.006 19.5183 140.356 19.7983 140.66 20.125C140.963 20.4517 141.161 20.8133 141.255 21.21C141.371 21.5833 141.325 21.98 141.115 22.4C140.788 22.9833 140.426 23.275 140.03 23.275C139.633 23.2517 139.201 23.1817 138.735 23.065C138.478 23.0183 138.175 22.9133 137.825 22.75C137.475 22.5867 137.171 22.4817 136.915 22.435C136.121 22.3183 135.421 22.3767 134.815 22.61C134.208 22.8433 133.683 23.1233 133.24 23.45C132.726 23.8467 132.283 24.3017 131.91 24.815V29.855C131.91 30.485 131.898 31.1383 131.875 31.815C131.875 32.4917 131.781 33.11 131.595 33.67C131.431 34.2067 131.14 34.65 130.72 35C130.323 35.3267 129.74 35.4667 128.97 35.42C128.55 35.3967 128.176 35.1983 127.85 34.825C127.523 34.4283 127.325 34.0433 127.255 33.67C127.208 33.32 127.173 32.9 127.15 32.41C127.126 31.92 127.103 31.4067 127.08 30.87C127.08 30.3333 127.08 29.7967 127.08 29.26C127.08 28.7 127.08 28.1867 127.08 27.72V22.61ZM146.144 20.265C146.844 19.915 147.579 19.67 148.349 19.53C149.119 19.3667 149.878 19.3317 150.624 19.425C151.394 19.495 152.129 19.6933 152.829 20.02C153.529 20.3233 154.183 20.7667 154.789 21.35C155.396 21.9567 155.863 22.6217 156.189 23.345C156.516 24.0683 156.749 24.8733 156.889 25.76C156.983 26.3667 157.134 26.9267 157.344 27.44C157.554 27.9533 157.776 28.4667 158.009 28.98C158.266 29.4933 158.499 30.0067 158.709 30.52C158.943 31.0333 159.129 31.57 159.269 32.13C159.386 32.6667 159.339 33.1917 159.129 33.705C158.943 34.195 158.546 34.4983 157.939 34.615C157.589 34.685 157.251 34.6617 156.924 34.545C156.621 34.405 156.341 34.2183 156.084 33.985C155.828 33.7283 155.594 33.46 155.384 33.18C155.198 32.8767 155.023 32.5967 154.859 32.34C154.323 33.04 153.739 33.5883 153.109 33.985C152.479 34.3583 151.721 34.6033 150.834 34.72C150.088 34.8133 149.376 34.8367 148.699 34.79C148.023 34.7433 147.299 34.615 146.529 34.405C145.526 34.1483 144.698 33.705 144.044 33.075C143.414 32.4217 142.924 31.675 142.574 30.835C142.248 29.9717 142.073 29.05 142.049 28.07C142.026 27.09 142.143 26.1217 142.399 25.165C142.726 23.905 143.216 22.8783 143.869 22.085C144.523 21.2917 145.281 20.685 146.144 20.265ZM147.019 24.36C146.693 24.6867 146.436 25.0717 146.249 25.515C146.063 25.9583 145.946 26.425 145.899 26.915C145.876 27.405 145.923 27.895 146.039 28.385C146.156 28.875 146.343 29.3067 146.599 29.68C146.833 30.0067 147.229 30.2867 147.789 30.52C148.349 30.73 148.933 30.8583 149.539 30.905C150.239 30.9517 150.846 30.765 151.359 30.345C151.896 29.925 152.293 29.4 152.549 28.77C152.829 28.1167 152.958 27.4283 152.934 26.705C152.911 25.9583 152.713 25.2817 152.339 24.675C152.059 24.2317 151.686 23.905 151.219 23.695C150.776 23.485 150.298 23.38 149.784 23.38C149.271 23.3567 148.758 23.4383 148.244 23.625C147.754 23.7883 147.346 24.0333 147.019 24.36ZM175.671 19.67C175.765 19.95 175.788 20.265 175.741 20.615C175.695 20.965 175.613 21.3267 175.496 21.7C175.38 22.05 175.24 22.4 175.076 22.75C174.936 23.0767 174.808 23.3683 174.691 23.625C174.085 24.8617 173.513 26.075 172.976 27.265C172.44 28.455 171.81 29.75 171.086 31.15C170.946 31.43 170.783 31.7683 170.596 32.165C170.433 32.5383 170.246 32.9117 170.036 33.285C169.826 33.635 169.593 33.9617 169.336 34.265C169.103 34.5683 168.846 34.79 168.566 34.93C168.333 35.07 168.1 35.1283 167.866 35.105C167.68 35.1517 167.47 35.0933 167.236 34.93C166.956 34.79 166.688 34.5683 166.431 34.265C166.198 33.9617 165.976 33.635 165.766 33.285C165.556 32.9117 165.358 32.5383 165.171 32.165C165.008 31.7683 164.856 31.43 164.716 31.15C164.436 30.6133 164.168 30.1117 163.911 29.645C163.678 29.1783 163.421 28.6767 163.141 28.14C162.885 27.58 162.593 26.95 162.266 26.25C161.94 25.5267 161.555 24.6517 161.111 23.625C160.995 23.345 160.866 23.0533 160.726 22.75C160.586 22.4467 160.458 22.12 160.341 21.77C160.248 21.42 160.178 21.07 160.131 20.72C160.108 20.3467 160.131 19.9733 160.201 19.6C160.271 19.25 160.446 18.97 160.726 18.76C161.006 18.55 161.321 18.41 161.671 18.34C162.021 18.27 162.371 18.2817 162.721 18.375C163.071 18.445 163.351 18.5967 163.561 18.83C163.771 19.04 163.97 19.32 164.156 19.67C164.343 20.02 164.518 20.3933 164.681 20.79C164.868 21.1633 165.031 21.5483 165.171 21.945C165.335 22.3183 165.486 22.645 165.626 22.925C165.953 23.6017 166.315 24.3367 166.711 25.13C167.131 25.9233 167.505 26.6583 167.831 27.335C168.065 26.7983 168.275 26.355 168.461 26.005C168.648 25.6317 168.823 25.27 168.986 24.92C169.173 24.57 169.36 24.185 169.546 23.765C169.756 23.345 170.013 22.8083 170.316 22.155C170.596 21.5483 170.876 20.9533 171.156 20.37C171.46 19.7867 171.821 19.2733 172.241 18.83C172.451 18.5967 172.72 18.445 173.046 18.375C173.373 18.2817 173.711 18.27 174.061 18.34C174.411 18.41 174.726 18.5617 175.006 18.795C175.31 19.005 175.531 19.2967 175.671 19.67ZM189.638 30.205C189.918 30.135 190.198 30.0883 190.478 30.065C190.781 30.0417 191.05 30.0767 191.283 30.17C191.54 30.2633 191.75 30.4267 191.913 30.66C192.076 30.87 192.158 31.1733 192.158 31.57C192.158 31.85 192.088 32.1183 191.948 32.375C191.808 32.6317 191.633 32.865 191.423 33.075C191.213 33.285 190.98 33.4717 190.723 33.635C190.466 33.775 190.221 33.8917 189.988 33.985C189.311 34.2883 188.53 34.5217 187.643 34.685C186.78 34.8483 185.881 34.9067 184.948 34.86C183.688 34.8133 182.475 34.5683 181.308 34.125C180.165 33.6583 179.266 32.9 178.613 31.85C178.006 30.8233 177.645 29.68 177.528 28.42C177.411 27.16 177.47 25.97 177.703 24.85C177.96 23.4967 178.391 22.4 178.998 21.56C179.628 20.6967 180.375 20.0083 181.238 19.495C182.288 18.8883 183.466 18.5733 184.773 18.55C186.08 18.5267 187.328 18.7833 188.518 19.32C189.311 19.67 190.023 20.1483 190.653 20.755C191.283 21.3383 191.761 22.05 192.088 22.89C192.181 23.1 192.251 23.3567 192.298 23.66C192.368 23.9633 192.415 24.29 192.438 24.64C192.461 24.9667 192.461 25.2933 192.438 25.62C192.415 25.9467 192.356 26.2383 192.263 26.495C192.123 26.915 191.948 27.2417 191.738 27.475C191.528 27.7083 191.26 27.8833 190.933 28C190.606 28.1167 190.21 28.1983 189.743 28.245C189.3 28.2683 188.763 28.2917 188.133 28.315C187.573 28.3383 187.048 28.35 186.558 28.35C186.068 28.35 185.566 28.35 185.053 28.35C184.54 28.3267 184.003 28.315 183.443 28.315C182.906 28.2917 182.3 28.2683 181.623 28.245C181.553 28.7117 181.611 29.12 181.798 29.47C182.008 29.7967 182.288 30.0767 182.638 30.31C182.988 30.52 183.385 30.6833 183.828 30.8C184.271 30.9167 184.703 30.9867 185.123 31.01C185.916 31.0567 186.675 30.9983 187.398 30.835C188.121 30.6483 188.868 30.4383 189.638 30.205ZM188.133 23.415C187.69 22.9017 187.223 22.5283 186.733 22.295C186.36 22.1317 185.963 22.0617 185.543 22.085C185.146 22.085 184.761 22.1433 184.388 22.26C183.711 22.4233 183.14 22.7733 182.673 23.31C182.626 23.3567 182.545 23.4733 182.428 23.66C182.311 23.8233 182.195 23.9983 182.078 24.185C181.985 24.3717 181.915 24.5467 181.868 24.71C181.821 24.8733 181.845 24.955 181.938 24.955H188.798C188.775 24.6283 188.716 24.36 188.623 24.15C188.53 23.9167 188.366 23.6717 188.133 23.415ZM200.674 32.2C200.651 32.3167 200.627 32.4333 200.604 32.55C200.604 32.6433 200.604 32.7483 200.604 32.865L200.394 33.6C200.347 33.6933 200.312 33.7517 200.289 33.775L200.184 33.985C200.067 34.2417 199.857 34.4517 199.554 34.615C198.994 34.895 198.399 34.965 197.769 34.825C197.372 34.7783 197.057 34.6617 196.824 34.475C196.591 34.3117 196.427 34.1133 196.334 33.88C196.241 33.6467 196.171 33.4133 196.124 33.18C196.054 32.9467 196.019 32.7367 196.019 32.55V12.95C196.019 12.7867 196.019 12.6467 196.019 12.53C196.042 12.39 196.066 12.2617 196.089 12.145C196.112 11.9817 196.136 11.8417 196.159 11.725C196.206 11.6083 196.252 11.48 196.299 11.34C196.369 11.1067 196.497 10.92 196.684 10.78C196.964 10.57 197.232 10.4533 197.489 10.43C197.652 10.3833 197.804 10.36 197.944 10.36C198.084 10.3367 198.247 10.325 198.434 10.325C198.761 10.325 199.134 10.4183 199.554 10.605C199.881 10.7917 200.114 11.0483 200.254 11.375C200.487 11.8417 200.604 12.2733 200.604 12.67C200.627 12.9033 200.639 13.2533 200.639 13.72C200.662 14.1867 200.674 14.5367 200.674 14.77V14.91C200.721 15.6567 200.744 16.38 200.744 17.08C200.744 17.7567 200.732 18.5033 200.709 19.32C200.709 20.1133 200.697 20.8833 200.674 21.63C200.674 22.3533 200.674 23.0767 200.674 23.8V31.15C200.674 31.2433 200.674 31.3367 200.674 31.43C200.697 31.5 200.709 31.5817 200.709 31.675C200.709 31.9083 200.697 32.0833 200.674 32.2Z" fill="#75A3C8"/>
<path d="M43.0755 40.572C32.6712 42.7959 18.445 45.1898 10.7674 54.5024C5.62416 60.7409 3.5761 66.9472 2.18705 75.7033C0.609432 85.648 9.34453 92.9125 15.8485 97.8476C23.5065 103.658 32.3358 107.603 41.4457 108.726C55.3175 110.434 71.0385 110.919 84.7788 107.949C92.4649 106.287 98.906 101.718 105.678 97.5146C118.58 89.506 131.416 80.5666 145.033 74.2603C158.112 68.203 172.334 61.9209 186.161 58.9424C198.614 56.26 211.019 58.8324 222.831 63.7709C228.441 66.1162 235.326 69.1345 239.848 73.8718C240.964 75.0406 240.663 76.2628 240.663 73.5388" stroke="#75A3C8" stroke-width="4" stroke-linecap="round" stroke-linejoin="round" stroke-dasharray="12 12"/>
<path d="M52.7904 29.7514L57.493 36.8737L56.9816 45.3931L62.1955 43.996L65.0582 39.0378L74.1825 36.5929L70.5528 54.3303L78.3737 52.2347L83.3068 34.1481L93.7347 31.354C95.8943 30.7753 97.176 28.5554 96.5973 26.3957C96.0186 24.2361 93.7987 22.9544 91.6391 23.5331L81.2112 26.3272L67.8957 13.1304L60.0748 15.2259L72.0869 28.7721L62.9626 31.2169L58.0043 28.3543L52.7904 29.7514Z" stroke="#75A3C8" stroke-width="3" stroke-linecap="round" stroke-linejoin="round"/>
</svg>
