<svg width="159" height="25" viewBox="0 0 159 25" fill="none" xmlns="http://www.w3.org/2000/svg">
<path d="M12.5324 1.01319C13.6141 1.01319 15.3144 5.80219 15.9213 7.62135C16.0584 8.03224 16.4387 8.31492 16.8717 8.32892C18.8095 8.3916 23.9583 8.66398 23.9583 9.78885C23.9583 10.8925 20.3235 13.6697 18.8442 14.7542C18.4814 15.0202 18.3327 15.4889 18.4744 15.9159C19.0788 17.7364 20.525 22.4411 19.5955 23.1833C18.672 23.9207 14.7013 20.9747 13.1369 19.7561C12.762 19.4641 12.2376 19.4637 11.8625 19.7556C10.2969 20.9738 6.32737 23.9208 5.46939 23.1833C4.60447 22.4398 5.97486 17.7202 6.54264 15.9065C6.675 15.4837 6.52478 15.0246 6.16743 14.7628C4.69579 13.6845 1.04163 10.8955 1.04163 9.78885C1.04163 8.66283 6.20095 8.39105 8.13419 8.32873C8.56414 8.31487 8.94292 8.03558 9.08225 7.6286C9.70317 5.81496 11.4494 1.01319 12.5324 1.01319Z" fill="white" stroke="white" stroke-width="2" stroke-linecap="round" stroke-linejoin="round"/>
<path d="M45.8657 1.01319C46.9473 1.01319 48.6477 5.80219 49.2546 7.62135C49.3916 8.03224 49.772 8.31492 50.2049 8.32892C52.1427 8.3916 57.2915 8.66398 57.2915 9.78885C57.2915 10.8925 53.6567 13.6697 52.1775 14.7542C51.8146 15.0202 51.6659 15.4889 51.8077 15.9159C52.412 17.7364 53.8582 22.4411 52.9287 23.1833C52.0052 23.9207 48.0346 20.9747 46.4702 19.7561C46.0953 19.4641 45.5709 19.4637 45.1958 19.7556C43.6301 20.9738 39.6606 23.9208 38.8026 23.1833C37.9377 22.4398 39.3081 17.7202 39.8759 15.9065C40.0082 15.4837 39.858 15.0246 39.5007 14.7628C38.029 13.6845 34.3749 10.8955 34.3749 9.78885C34.3749 8.66283 39.5342 8.39105 41.4674 8.32873C41.8974 8.31487 42.2762 8.03558 42.4155 7.6286C43.0364 5.81496 44.7826 1.01319 45.8657 1.01319Z" fill="white" stroke="white" stroke-width="2" stroke-linecap="round" stroke-linejoin="round"/>
<path d="M79.1992 1.01319C80.2808 1.01319 81.9812 5.80219 82.5881 7.62135C82.7251 8.03224 83.1055 8.31492 83.5384 8.32892C85.4762 8.3916 90.625 8.66398 90.625 9.78885C90.625 10.8925 86.9902 13.6697 85.511 14.7542C85.1481 15.0202 84.9994 15.4889 85.1412 15.9159C85.7455 17.7364 87.1917 22.4411 86.2622 23.1833C85.3387 23.9207 81.368 20.9747 79.8037 19.7561C79.4288 19.4641 78.9044 19.4637 78.5293 19.7556C76.9636 20.9738 72.9941 23.9208 72.1361 23.1833C71.2712 22.4398 72.6416 17.7202 73.2094 15.9065C73.3417 15.4837 73.1915 15.0246 72.8342 14.7628C71.3625 13.6845 67.7084 10.8955 67.7084 9.78885C67.7084 8.66283 72.8677 8.39105 74.8009 8.32873C75.2309 8.31487 75.6097 8.03558 75.749 7.6286C76.3699 5.81496 78.1161 1.01319 79.1992 1.01319Z" fill="white" stroke="white" stroke-width="2" stroke-linecap="round" stroke-linejoin="round"/>
<path d="M112.532 1.01319C113.614 1.01319 115.314 5.80219 115.921 7.62135C116.058 8.03224 116.439 8.31492 116.872 8.32892C118.809 8.3916 123.958 8.66398 123.958 9.78885C123.958 10.8925 120.323 13.6697 118.844 14.7542C118.481 15.0202 118.333 15.4889 118.474 15.9159C119.079 17.7364 120.525 22.4411 119.595 23.1833C118.672 23.9207 114.701 20.9747 113.137 19.7561C112.762 19.4641 112.238 19.4637 111.863 19.7556C110.297 20.9738 106.327 23.9208 105.469 23.1833C104.604 22.4398 105.975 17.7202 106.543 15.9065C106.675 15.4837 106.525 15.0246 106.167 14.7628C104.696 13.6845 101.042 10.8955 101.042 9.78885C101.042 8.66283 106.201 8.39105 108.134 8.32873C108.564 8.31487 108.943 8.03558 109.082 7.6286C109.703 5.81496 111.449 1.01319 112.532 1.01319Z" fill="white" stroke="white" stroke-width="2" stroke-linecap="round" stroke-linejoin="round"/>
<path d="M145.866 1.01319L142.461 7.76845C142.293 8.10187 141.957 8.31392 141.584 8.32512C139.751 8.38013 134.375 8.63946 134.375 9.78885C134.375 10.8955 138.029 13.6845 139.501 14.7628C139.858 15.0246 140.008 15.4837 139.876 15.9065C139.308 17.7202 137.938 22.4398 138.803 23.1833C139.877 24.107 146 19 146 19" stroke="white" stroke-width="2" stroke-linecap="round" stroke-linejoin="round"/>
<path d="M146 1V19" stroke="white" stroke-width="2" stroke-linecap="round"/>
<path d="M141.121 11.8125C140.546 11.5856 140.008 11.2977 139.46 11.0148C139.073 10.8152 138.635 10.6889 138.263 10.4661C137.996 10.3057 137.634 10.3488 137.354 10.1962C137.268 10.149 136.943 10.0723 137.139 10.2891C137.191 10.3471 137.44 10.4029 137.51 10.4451C137.83 10.635 138.032 10.9368 138.29 11.1948C138.427 11.3315 138.617 11.4443 138.77 11.5696C138.999 11.757 139.19 12.0199 139.445 12.1633C139.671 12.2906 139.95 12.3757 140.137 12.5562C140.41 12.8195 140.876 12.9283 141.055 13.2699C141.138 13.4276 141.142 13.5949 141.124 13.7617C141.093 14.0375 141.235 14.3138 141.325 14.5653C141.382 14.7258 141.368 14.8896 141.418 15.0481C141.585 15.5833 141.422 16.2604 141.391 16.8084C141.371 17.1518 141.003 17.4196 140.956 17.75C140.934 17.9026 140.905 18.0335 140.905 18.1938C140.905 18.2977 140.966 18.6171 140.851 18.5597" stroke="white" stroke-width="3" stroke-linecap="round" stroke-dasharray="10 10"/>
<path d="M140.851 18.5597C140.757 18.7008 140.75 19.0689 140.743 19.2494C140.737 19.407 140.689 19.5558 140.689 19.7202C140.689 19.8884 140.627 20.0114 140.581 20.173C140.552 20.2749 140.357 20.4334 140.377 20.3949C140.501 20.1617 140.549 19.9901 140.779 19.8432C141.125 19.6224 141.476 19.4109 141.823 19.1924C141.874 19.1602 141.961 19.0593 142.021 19.0485C142.182 19.019 142.356 19.107 142.47 18.9645C142.51 18.9154 142.602 18.9136 142.656 18.8596C142.959 18.5564 143.222 18.2157 143.526 17.912C143.586 17.8521 143.618 17.8882 143.682 17.852C143.81 17.7787 143.937 17.5624 144.066 17.4621C144.258 17.3128 143.921 16.6667 143.817 16.4666C143.558 15.971 143.681 15.3916 143.523 14.8862C143.472 14.7243 143.474 14.5354 143.442 14.3674C143.281 13.5324 143.187 12.7521 142.824 11.9624C142.66 11.606 142.227 11.0839 142.35 10.667C142.397 10.5088 142.738 10.273 142.878 10.1392C143.038 9.98611 143.754 9.08578 144.018 9.20358C144.095 9.23807 144.175 9.30282 144.243 9.35352C144.247 9.35651 144.356 9.45648 144.357 9.45547C144.372 9.43208 144.174 9.15903 144.144 9.11362" stroke="white" stroke-width="3" stroke-linecap="round" stroke-dasharray="10 10"/>
<path d="M144.144 9.11362C144.168 8.50165 144.327 7.9026 144.402 7.29637C144.416 7.18241 144.36 7.07714 144.36 6.95451C144.36 6.78097 144.306 6.60713 144.306 6.44772C144.306 6.15161 144.179 7.0398 144.225 7.33236C144.282 7.70218 144.189 8.10157 144.156 8.47188C144.121 8.85328 144.17 9.2332 144.09 9.61141C143.897 10.5181 143.975 11.6632 144.24 12.5562C144.361 12.9643 144.202 13.5067 144.198 13.9176C144.196 14.1286 144.287 14.9674 144.036 15.0511" stroke="white" stroke-width="3" stroke-linecap="round" stroke-dasharray="10 10"/>
<path d="M141.283 10.1932C141 10.1124 140.721 10.011 140.461 9.8723C140.329 9.80164 140.155 9.63414 139.999 9.6234C139.902 9.61668 139.925 9.80947 139.825 9.81532C139.699 9.82274 139.762 9.76135 139.837 9.76135C140.115 9.76135 140.412 9.8792 140.671 9.95627C141.075 10.0764 141.511 10.1913 141.889 10.3851C142.125 10.5063 142.19 10.7541 142.2 10.9908C142.211 11.2329 142.448 11.382 142.47 11.5966C142.478 11.6709 142.514 11.7213 142.548 11.7855C142.752 12.1639 142.724 12.9018 142.746 13.2879C142.826 14.7121 142.738 16.1365 142.77 17.5611C142.774 17.7278 142.819 17.9432 142.794 18.1159C142.755 18.3928 142.574 18.666 142.503 18.9405C142.429 19.2288 142.357 19.5254 142.308 19.8192C142.304 19.843 142.296 19.7519 142.272 19.7562C141.947 19.8154 141.545 20.1713 141.271 20.3409C141.048 20.479 140.963 20.5634 140.851 20.5569C140.686 20.5471 140.6 20.6244 140.473 20.7308C140.372 20.8157 140.259 20.9647 140.149 21.0307C139.988 21.1274 140.357 20.7168 140.473 20.5689C140.651 20.3426 140.681 20.0789 140.8 19.8222C141.268 18.8148 141.891 17.8645 142.512 16.9464C142.771 16.5641 142.848 16.5134 142.848 16.1247C142.848 15.7845 142.882 15.5195 142.965 15.1801C143.138 14.4758 143.489 13.6722 143.436 12.934C143.4 12.4263 143.158 12.0097 142.962 11.5696C142.903 11.4371 143.045 11.3987 143.067 11.2997C143.095 11.1739 143.256 11.1678 143.277 11.0298C143.298 10.8964 143.29 10.729 143.277 10.595C143.247 10.2789 143.079 9.93748 142.986 9.6324C142.928 9.44186 142.638 8.94744 142.638 9.1466C142.638 9.28927 143.038 9.57121 143.145 9.6264C143.42 9.76799 143.618 9.9543 143.853 10.1452C144.157 10.3928 144.626 10.7354 144.68 11.1678C144.699 11.313 144.737 11.45 144.737 11.5966C144.737 11.655 144.737 11.8889 144.737 11.7045" stroke="white" stroke-width="3" stroke-linecap="round" stroke-dasharray="10 10"/>
</svg>
