<svg width="159" height="25" viewBox="0 0 159 25" fill="none" xmlns="http://www.w3.org/2000/svg">
<path d="M12.5324 1.01318C13.6141 1.01318 15.3144 5.80218 15.9213 7.62134C16.0584 8.03223 16.4387 8.31492 16.8717 8.32892C18.8095 8.3916 23.9583 8.66397 23.9583 9.78885C23.9583 10.8925 20.3235 13.6697 18.8442 14.7542C18.4814 15.0202 18.3327 15.4889 18.4744 15.9159C19.0788 17.7364 20.525 22.4411 19.5955 23.1833C18.672 23.9207 14.7013 20.9747 13.1369 19.7561C12.762 19.4641 12.2376 19.4637 11.8625 19.7556C10.2969 20.9738 6.32737 23.9208 5.46939 23.1833C4.60447 22.4398 5.97486 17.7202 6.54264 15.9065C6.675 15.4837 6.52478 15.0246 6.16743 14.7628C4.69579 13.6845 1.04163 10.8955 1.04163 9.78885C1.04163 8.66282 6.20095 8.39104 8.13419 8.32873C8.56414 8.31487 8.94292 8.03558 9.08225 7.6286C9.70317 5.81495 11.4494 1.01318 12.5324 1.01318Z" fill="#75A3C8" stroke="#75A3C8" stroke-width="2" stroke-linecap="round" stroke-linejoin="round"/>
<path d="M45.8658 1.01318C46.9474 1.01318 48.6478 5.80218 49.2547 7.62134C49.3918 8.03223 49.7721 8.31492 50.205 8.32892C52.1429 8.3916 57.2917 8.66397 57.2917 9.78885C57.2917 10.8925 53.6568 13.6697 52.1776 14.7542C51.8148 15.0202 51.666 15.4889 51.8078 15.9159C52.4121 17.7364 53.8584 22.4411 52.9289 23.1833C52.0054 23.9207 48.0347 20.9747 46.4703 19.7561C46.0954 19.4641 45.571 19.4637 45.1959 19.7556C43.6303 20.9738 39.6607 23.9208 38.8028 23.1833C37.9378 22.4398 39.3082 17.7202 39.876 15.9065C40.0084 15.4837 39.8582 15.0246 39.5008 14.7628C38.0292 13.6845 34.375 10.8955 34.375 9.78885C34.375 8.66282 39.5343 8.39104 41.4676 8.32873C41.8975 8.31487 42.2763 8.03558 42.4156 7.6286C43.0365 5.81495 44.7827 1.01318 45.8658 1.01318Z" fill="#75A3C8" stroke="#75A3C8" stroke-width="2" stroke-linecap="round" stroke-linejoin="round"/>
<path d="M79.1991 1.01318C80.2807 1.01318 81.9811 5.80218 82.5879 7.62134C82.725 8.03223 83.1054 8.31492 83.5383 8.32892C85.4761 8.3916 90.6249 8.66397 90.6249 9.78885C90.6249 10.8925 86.9901 13.6697 85.5109 14.7542C85.148 15.0202 84.9993 15.4889 85.141 15.9159C85.7454 17.7364 87.1916 22.4411 86.2621 23.1833C85.3386 23.9207 81.3679 20.9747 79.8036 19.7561C79.4286 19.4641 78.9042 19.4637 78.5292 19.7556C76.9635 20.9738 72.994 23.9208 72.136 23.1833C71.2711 22.4398 72.6415 17.7202 73.2093 15.9065C73.3416 15.4837 73.1914 15.0246 72.8341 14.7628C71.3624 13.6845 67.7083 10.8955 67.7083 9.78885C67.7083 8.66282 72.8676 8.39104 74.8008 8.32873C75.2308 8.31487 75.6095 8.03558 75.7489 7.6286C76.3698 5.81495 78.116 1.01318 79.1991 1.01318Z" fill="#75A3C8" stroke="#75A3C8" stroke-width="2" stroke-linecap="round" stroke-linejoin="round"/>
<path d="M112.532 1.01318C113.614 1.01318 115.314 5.80218 115.921 7.62134C116.058 8.03223 116.439 8.31492 116.872 8.32892C118.809 8.3916 123.958 8.66397 123.958 9.78885C123.958 10.8925 120.323 13.6697 118.844 14.7542C118.481 15.0202 118.333 15.4889 118.474 15.9159C119.079 17.7364 120.525 22.4411 119.595 23.1833C118.672 23.9207 114.701 20.9747 113.137 19.7561C112.762 19.4641 112.238 19.4637 111.863 19.7556C110.297 20.9738 106.327 23.9208 105.469 23.1833C104.604 22.4398 105.975 17.7202 106.543 15.9065C106.675 15.4837 106.525 15.0246 106.167 14.7628C104.696 13.6845 101.042 10.8955 101.042 9.78885C101.042 8.66282 106.201 8.39104 108.134 8.32873C108.564 8.31487 108.943 8.03558 109.082 7.6286C109.703 5.81495 111.449 1.01318 112.532 1.01318Z" fill="#75A3C8" stroke="#75A3C8" stroke-width="2" stroke-linecap="round" stroke-linejoin="round"/>
<path d="M145.866 1.01318C146.947 1.01318 148.648 5.80218 149.255 7.62134C149.392 8.03223 149.772 8.31492 150.205 8.32892C152.143 8.3916 157.292 8.66397 157.292 9.78885C157.292 10.8925 153.657 13.6697 152.178 14.7542C151.815 15.0202 151.666 15.4889 151.808 15.9159C152.412 17.7364 153.858 22.4411 152.929 23.1833C152.005 23.9207 148.035 20.9747 146.47 19.7561C146.095 19.4641 145.571 19.4637 145.196 19.7556C143.63 20.9738 139.661 23.9208 138.803 23.1833C137.938 22.4398 139.308 17.7202 139.876 15.9065C140.008 15.4837 139.858 15.0246 139.501 14.7628C138.029 13.6845 134.375 10.8955 134.375 9.78885C134.375 8.66282 139.534 8.39104 141.468 8.32873C141.898 8.31487 142.276 8.03558 142.416 7.6286C143.037 5.81495 144.783 1.01318 145.866 1.01318Z" fill="#75A3C8" stroke="#75A3C8" stroke-width="2" stroke-linecap="round" stroke-linejoin="round"/>
</svg>
