<svg width="36" height="36" viewBox="0 0 36 36" fill="none" xmlns="http://www.w3.org/2000/svg">
<path d="M18 32.4C18 32.4 29.2696 22.3826 29.2696 14.8695C29.2696 8.64553 24.224 3.59998 18 3.59998C11.776 3.59998 6.73047 8.64553 6.73047 14.8695C6.73047 22.3826 18 32.4 18 32.4Z" fill="#90CAF9"/>
<path d="M21.6005 14.4002C21.6005 16.3884 19.9887 18.0002 18.0005 18.0002C16.0123 18.0002 14.4005 16.3884 14.4005 14.4002C14.4005 12.412 16.0123 10.8002 18.0005 10.8002C19.9887 10.8002 21.6005 12.412 21.6005 14.4002Z" fill="#90CAF9"/>
<path d="M18 32.4C18 32.4 29.2696 22.3826 29.2696 14.8695C29.2696 8.64553 24.224 3.59998 18 3.59998C11.776 3.59998 6.73047 8.64553 6.73047 14.8695C6.73047 22.3826 18 32.4 18 32.4Z" stroke="white" stroke-width="2"/>
<path d="M21.6005 14.4002C21.6005 16.3884 19.9887 18.0002 18.0005 18.0002C16.0123 18.0002 14.4005 16.3884 14.4005 14.4002C14.4005 12.412 16.0123 10.8002 18.0005 10.8002C19.9887 10.8002 21.6005 12.412 21.6005 14.4002Z" stroke="white" stroke-width="2"/>
</svg>
